<?xml version="1.0" encoding="utf-8"?>
<!-- Generator: Adobe Illustrator 16.0.0, SVG Export Plug-In . SVG Version: 6.00 Build 0)  -->
<!DOCTYPE svg PUBLIC "-//W3C//DTD SVG 1.1 Tiny//EN" "http://www.w3.org/Graphics/SVG/1.1/DTD/svg11-tiny.dtd">
<svg version="1.1" baseProfile="tiny" id="Layer_1" xmlns="http://www.w3.org/2000/svg" xmlns:xlink="http://www.w3.org/1999/xlink"
	 x="0px" y="0px" width="649.167px" height="649.166px" viewBox="43.288 218.682 649.167 649.166" xml:space="preserve">
<title>Layer 1</title>
<path id="path7146" fill="none" d="M120.797,231.819c-35.47,0-64.372,28.902-64.372,64.437V790.34
	c0,35.47,28.901,64.371,64.372,64.371h494.084c35.47,0,64.371-28.901,64.371-64.371V296.256c0-35.535-28.901-64.437-64.371-64.437
	H120.797z"/>
<path id="path7150" fill="#FFFFFF" d="M339.594,447.069c0,17.144-15.566,35.404-35.733,35.404v289.146
	c0,40.988-56.029,40.988-56.029,0V482.474c-19.706,0-36.849-15.174-36.849-37.967V285.418c0-13.859,20.033-14.45,20.033,0.525
	v117.643h16.75h19.312h-1.512V285.024c0-13.268,18.787-13.794,18.787,0.525v118.037h35.798V285.024
	c0-13.071,19.442-13.597,19.442,0.525V447.069z"/>
<path id="path7152" fill="#FFFFFF" d="M515.039,322.465v448.957c0,40.2-56.03,39.609-56.03,0V593.416h-29.886V322.465
	C429.123,259.472,515.039,259.472,515.039,322.465"/>
</svg>
