<?xml version="1.0" encoding="utf-8"?>
<!-- Generator: Adobe Illustrator 16.0.0, SVG Export Plug-In . SVG Version: 6.00 Build 0)  -->
<!DOCTYPE svg PUBLIC "-//W3C//DTD SVG 1.1//EN" "http://www.w3.org/Graphics/SVG/1.1/DTD/svg11.dtd">
<svg version="1.1" id="Layer_1" xmlns="http://www.w3.org/2000/svg" xmlns:xlink="http://www.w3.org/1999/xlink" x="0px" y="0px"
	 width="200px" height="200px" viewBox="0 0 200 200" enable-background="new 0 0 200 200" xml:space="preserve">
<g id="XMLID_13_">
	<g>
		<path fill="#00ADEE" d="M131.449,192.86c-9.686,3.143-20.029,4.845-30.771,4.845V98.062l30.763,94.777L131.449,192.86z"/>
	</g>
	<g>
	</g>
</g>
<g id="XMLID_14_">
	<g>
		<path fill="#FFF100" d="M159.174,178.539c-8.216,6.014-17.506,10.87-27.706,14.237l-31.205-94.631l58.895,80.372l0.001,0.004
			L159.174,178.539z"/>
	</g>
	<g>
	</g>
</g>
<g id="XMLID_15_">
	<g>
		<path fill="#00ADEE" d="M159.351,178.591l-59.271-80.1l81.105,57.89l0.019,0.012C175.288,164.68,167.985,172.201,159.351,178.591z
			"/>
	</g>
	<g>
	</g>
</g>
<g id="XMLID_16_">
	<g>
		<path fill="#FFF100" d="M181.329,156.263L99.956,98.754l95.154,29.578l0.021,0.005
			C192.108,138.061,187.528,147.49,181.329,156.263z"/>
	</g>
	<g>
	</g>
</g>
<g id="XMLID_17_">
	<g>
		<path fill="#00ADEE" d="M194.794,128.197l-95.29-29.133l99.63-1.708l0.022-0.002C199.331,107.535,197.935,117.925,194.794,128.197
			z"/>
	</g>
	<g>
	</g>
</g>
<g id="XMLID_18_">
	<g>
		<path fill="#FFF100" d="M193.636,66.695c3.35,9.615,5.276,19.919,5.515,30.658l-99.624,2.178l94.088-32.827L193.636,66.695z"/>
	</g>
	<g>
	</g>
</g>
<g id="XMLID_19_">
	<g>
		<path fill="#00ADEE" d="M193.455,66.482L99.527,99.744L178.6,39.108l0.017-0.015C184.812,47.174,189.869,56.357,193.455,66.482z"
			/>
	</g>
	<g>
	</g>
</g>
<g id="XMLID_20_">
	<g>
		<path fill="#FFF100" d="M178.546,38.914L99.759,99.917l56.106-82.349l0.012-0.019C164.291,23.283,171.97,30.42,178.546,38.914z"/>
	</g>
	<g>
	</g>
</g>
<g id="XMLID_21_">
	<g>
		<path fill="#00ADEE" d="M155.617,17.481l-55.72,82.608l27.495-95.777l0.005-0.022C137.185,7.101,146.712,11.475,155.617,17.481z"
			/>
	</g>
	<g>
	</g>
</g>
<g id="XMLID_22_">
	<g>
		<path fill="#FFF100" d="M127.271,4.289l-27.047,95.902L96.342,0.622L96.34,0.599C106.515,0.203,116.933,1.373,127.271,4.289z"/>
	</g>
	<g>
	</g>
</g>
<g id="XMLID_23_">
	<g>
		<path fill="#00ADEE" d="M96.057,0.586l4.346,99.549L65.535,6.79L65.53,6.773l-0.004,0V6.769
			C75.065,3.207,85.325,1.055,96.057,0.586z"/>
	</g>
	<g>
	</g>
</g>
<g id="XMLID_24_">
	<g>
		<path fill="#FFF100" d="M38.45,22.329c7.944-6.371,17.014-11.627,27.059-15.433l35.303,93.18L38.465,22.345l-0.01-0.014
			l-0.004,0.001L38.45,22.329z"/>
	</g>
	<g>
	</g>
</g>
<g id="XMLID_25_">
	<g>
		<path fill="#00ADEE" d="M17.575,45.796c5.549-8.538,12.514-16.368,20.859-23.131l62.71,77.441l-83.55-54.299L17.575,45.796z"/>
	</g>
	<g>
	</g>
</g>
<g id="XMLID_26_">
	<g>
		<path fill="#FFF100" d="M17.564,45.907l83.8,53.902L5.014,74.413l-0.022-0.004C7.588,64.562,11.753,54.941,17.564,45.907z"/>
	</g>
	<g>
	</g>
</g>
<g id="XMLID_27_">
	<g>
		<path fill="#00ADEE" d="M101.477,99.485l-99.461,6.052l-0.022,0.003C1.375,95.376,2.318,84.936,5.007,74.536L101.477,99.485z"/>
	</g>
	<g>
	</g>
</g>
<g id="XMLID_28_">
	<g>
		<path fill="#FFF100" d="M101.466,99.085L8.903,135.98l-0.02,0.01c-3.77-9.459-6.145-19.674-6.847-30.389L101.466,99.085z"/>
	</g>
	<g>
	</g>
</g>
<g id="XMLID_29_">
	<g>
		<path fill="#00ADEE" d="M25.035,162.796c-6.542-7.803-11.997-16.761-16.019-26.716l92.388-37.327L25.051,162.78L25.035,162.796z"
			/>
	</g>
	<g>
	</g>
</g>
<g id="XMLID_30_">
	<g>
		<path fill="#FFF100" d="M101.172,98.42l-52.461,84.718l-0.011,0.02c-8.657-5.361-16.642-12.16-23.58-20.355L101.172,98.42z"/>
	</g>
	<g>
	</g>
</g>
<g id="XMLID_31_">
	<g>
		<path fill="#00ADEE" d="M77.731,195.28c-9.904-2.384-19.611-6.341-28.768-11.947l52.063-84.96l-23.289,96.882L77.731,195.28z"/>
	</g>
	<g>
	</g>
</g>
<g id="XMLID_32_">
	<g>
		<path fill="#FFF100" d="M108.927,197.709c-10.148,0.84-20.611,0.125-31.063-2.337l22.838-96.99l8.221,99.306L108.927,197.709z"/>
	</g>
	<g>
	</g>
</g>
</svg>
