<?xml version="1.0" encoding="utf-8"?>
<!-- Generator: Adobe Illustrator 16.0.0, SVG Export Plug-In . SVG Version: 6.00 Build 0)  -->
<!DOCTYPE svg PUBLIC "-//W3C//DTD SVG 1.1 Tiny//EN" "http://www.w3.org/Graphics/SVG/1.1/DTD/svg11-tiny.dtd">
<svg version="1.1" baseProfile="tiny" id="Layer_1" xmlns="http://www.w3.org/2000/svg" xmlns:xlink="http://www.w3.org/1999/xlink"
	 x="0px" y="0px" width="238.365px" height="49.145px" viewBox="0 0 238.365 49.145" xml:space="preserve">
<g>
	<path fill="#FFFFFF" d="M39.689,45.888c-0.121,0.155-0.281,0.29-0.48,0.406c-1.121,0.619-2.404,0.93-3.846,0.93
		c-3.203,0-7.169-0.894-11.894-2.682s-8.93-3.835-12.613-6.14c-0.802-0.477-1.543-0.934-2.223-1.371v3.632
		c0,2.104,0.081,3.334,0.242,3.691c0.322,0.833,1.333,1.23,3.03,1.19h2.423v1.079H2.039v-1.079h3.357V12.571
		c0-2.278-0.163-3.657-0.487-4.137c-0.244-0.319-1.196-0.54-2.859-0.66l-0.791-0.06v-1.08h7.375v3.777
		c4.205-2.718,8.089-4.077,11.655-4.077c4.725,0,8.81,1.537,12.254,4.609c3.523,3.192,5.287,7.124,5.287,11.793
		c0,4.789-1.709,8.779-5.125,11.972c-3.418,3.191-7.546,4.908-12.381,5.147c1.838,0.918,4.616,2.255,8.333,4.011
		c3.118,1.397,5.636,2.096,7.554,2.096c1,0,1.998-0.2,2.998-0.6L39.689,45.888z M8.633,34.634l0.6-0.96
		c4.206,3.158,7.952,4.737,11.237,4.737c3.966,0,7.331-1.446,10.095-4.339c2.764-2.892,4.146-6.332,4.146-10.321
		c0-4.307-1.553-7.987-4.658-11.039c-3.104-3.052-6.819-4.578-11.146-4.578c-3.966,0-7.391,1.595-10.275,4.785V34.634z"/>
	<path fill="#FFFFFF" d="M68.944,32.655c0,3.997-1.52,7.454-4.556,10.372c-3.038,2.918-6.556,4.376-10.552,4.376
		c-3.598,0-6.646-1.298-9.143-3.896c-2.499-2.598-3.747-5.716-3.747-9.353c0-3.838,1.578-7.174,4.736-10.012
		c3.156-2.837,6.674-4.257,10.551-4.257c3.478,0,6.465,1.27,8.963,3.807c2.498,2.539,3.747,5.546,3.747,9.022V32.655z
		 M66.666,33.614c0-3.036-1.239-5.794-3.717-8.273c-2.398-2.317-5.155-3.477-8.273-3.477c-3.117,0-5.806,1.049-8.063,3.147
		c-2.259,2.098-3.387,4.686-3.387,7.764c0,3.518,1.135,6.515,3.407,8.992c2.272,2.479,5.143,3.718,8.611,3.718
		c3.189,0,5.891-1.089,8.104-3.268c2.213-2.178,3.318-4.866,3.318-8.063v-0.24c0-0.039,0-0.08,0-0.119V33.614z"/>
	<path fill="#FFFFFF" d="M90.287,20.605V40.82c0,1.914,0.06,3.051,0.18,3.408c0.279,0.958,1.139,1.396,2.578,1.316h0.959v1.079
		h-6.535v-2.338c-1.119,1.279-2.358,2.139-3.717,2.578c-0.72,0.359-1.559,0.539-2.518,0.539c-2.519,0-4.577-1.199-6.176-3.597
		c-0.68-1.279-1.019-3.598-1.019-6.955V26.36c0-2.158-0.141-3.478-0.42-3.957c-0.24-0.36-1.02-0.579-2.338-0.66l-0.84-0.06v-1.079
		h6.415v17.446c0,5.275,1.718,7.914,5.156,7.914c2.917,0,4.735-1.998,5.455-5.995V26.36c0-2.158-0.141-3.478-0.42-3.957
		c-0.239-0.36-1.019-0.579-2.338-0.66l-0.839-0.06v-1.079H90.287z"/>
	<path fill="#FFFFFF" d="M101.976,4.118v36.577c0,1.956,0.061,3.094,0.18,3.412c0.279,0.839,1.159,1.258,2.639,1.258h0.479v1.259
		h-8.873v-1.259h2.817V7.525l-2.602,3.033l-0.749-0.692l6.528-7.846l0.748,0.693L101.976,4.118z"/>
	<path fill="#FFFFFF" d="M111.03,28.099c-0.44,0.877-0.72,1.594-0.84,2.151c-0.28,0.877-0.419,1.951-0.419,3.226
		c0,3.347,1.238,6.185,3.717,8.515c2.478,2.33,5.396,3.495,8.753,3.495c5.155,0,9.152-2.639,11.99-7.914l0.959,0.36
		c-1.079,2.438-2.338,4.337-3.776,5.694c-2.039,1.919-4.677,3.118-7.914,3.598c-0.4,0.12-1.079,0.18-2.038,0.18
		c-3.798,0-7.035-1.179-9.713-3.537c-2.838-2.478-4.256-5.576-4.256-9.292c0-3.996,1.598-7.454,4.796-10.372
		c3.117-2.797,6.694-4.197,10.731-4.197c5.355,0,9.271,2.698,11.751,8.093H111.03z M131.053,26.84
		c-2.518-3.237-5.855-4.856-10.012-4.856c-3.798,0-6.895,1.619-9.293,4.856H131.053z"/>
	<path fill="#FFFFFF" d="M142.684,21.864v15.789c0,5.541,1.639,8.312,4.916,8.312c2.198,0,4.217-1.238,6.056-3.718l0.839,0.3
		c-0.242,1.52-0.938,2.709-2.088,3.567c-1.15,0.859-2.532,1.289-4.146,1.289h-0.12h-0.18c-2.143-0.12-3.948-0.867-5.416-2.242
		c-1.469-1.375-2.302-3.121-2.499-5.234c-0.12-0.917-0.179-2.293-0.179-4.127V21.864h-3.118v-1.259h3.118V10.173l2.817-3.178v13.609
		h5.456v1.259H142.684z"/>
	<path fill="#FFFFFF" d="M159.53,21.864v15.789c0,5.541,1.639,8.312,4.916,8.312c2.198,0,4.217-1.238,6.056-3.718l0.839,0.3
		c-0.242,1.52-0.938,2.709-2.088,3.567c-1.15,0.859-2.532,1.289-4.146,1.289h-0.12h-0.18c-2.143-0.12-3.948-0.867-5.416-2.242
		c-1.469-1.375-2.302-3.121-2.499-5.234c-0.12-0.917-0.179-2.293-0.179-4.127V21.864h-3.118v-1.259h3.118V10.173l2.817-3.178v13.609
		h5.456v1.259H159.53z"/>
	<path fill="#FFFFFF" d="M173.858,28.099c-0.44,0.877-0.72,1.594-0.84,2.151c-0.28,0.877-0.419,1.951-0.419,3.226
		c0,3.347,1.238,6.185,3.717,8.515c2.478,2.33,5.396,3.495,8.753,3.495c5.155,0,9.152-2.639,11.99-7.914l0.959,0.36
		c-1.079,2.438-2.338,4.337-3.776,5.694c-2.039,1.919-4.677,3.118-7.914,3.598c-0.4,0.12-1.079,0.18-2.038,0.18
		c-3.798,0-7.035-1.179-9.713-3.537c-2.838-2.478-4.256-5.576-4.256-9.292c0-3.996,1.598-7.454,4.796-10.372
		c3.117-2.797,6.694-4.197,10.731-4.197c5.355,0,9.271,2.698,11.751,8.093H173.858z M193.881,26.84
		c-2.518-3.237-5.855-4.856-10.012-4.856c-3.798,0-6.895,1.619-9.293,4.856H193.881z"/>
	<path fill="#FFFFFF" d="M238.126,45.888c-0.12,0.155-0.28,0.29-0.48,0.406c-1.121,0.619-2.403,0.93-3.845,0.93
		c-3.204,0-7.169-0.894-11.894-2.682c-4.726-1.788-8.931-3.835-12.613-6.14c-0.803-0.477-1.543-0.934-2.224-1.371v3.632
		c0,2.104,0.081,3.334,0.243,3.691c0.322,0.833,1.332,1.23,3.029,1.19h2.423v1.079h-12.29v-1.079h3.357V12.571
		c0-2.278-0.163-3.657-0.487-4.137c-0.243-0.319-1.196-0.54-2.858-0.66l-0.791-0.06v-1.08h7.374v3.777
		c4.205-2.718,8.09-4.077,11.655-4.077c4.725,0,8.811,1.537,12.255,4.609c3.523,3.192,5.287,7.124,5.287,11.793
		c0,4.789-1.709,8.779-5.126,11.972c-3.418,3.191-7.545,4.908-12.38,5.147c1.838,0.918,4.616,2.255,8.333,4.011
		c3.117,1.397,5.636,2.096,7.554,2.096c0.999,0,1.998-0.2,2.998-0.6L238.126,45.888z M207.071,34.634l0.601-0.96
		c4.206,3.158,7.952,4.737,11.237,4.737c3.967,0,7.331-1.446,10.096-4.339c2.764-2.892,4.146-6.332,4.146-10.321
		c0-4.307-1.553-7.987-4.657-11.039c-3.104-3.052-6.82-4.578-11.146-4.578c-3.966,0-7.391,1.595-10.275,4.785V34.634z"/>
</g>
</svg>
