<?xml version="1.0" encoding="utf-8"?>
<!-- Generator: Adobe Illustrator 16.0.0, SVG Export Plug-In . SVG Version: 6.00 Build 0)  -->
<!DOCTYPE svg PUBLIC "-//W3C//DTD SVG 1.1//EN" "http://www.w3.org/Graphics/SVG/1.1/DTD/svg11.dtd">
<svg version="1.1" id="Layer_1" xmlns="http://www.w3.org/2000/svg" xmlns:xlink="http://www.w3.org/1999/xlink" x="0px" y="0px"
	 width="2000px" height="338.953px" viewBox="-313.75 0 2000 338.953" enable-background="new -313.75 0 2000 338.953"
	 xml:space="preserve">
<rect x="-313.75" fill="#006837" width="2000" height="338.953"/>
<g>
	<g>
		<g>
			<g id="XMLID_3_">
				<g>
					<rect x="589.672" y="163.809" fill="#FF0000" width="44.675" height="55.353"/>
					<rect x="589.672" y="108.533" width="44.675" height="55.276"/>
					<rect x="589.672" y="53.181" fill="#FF0000" width="44.675" height="55.358"/>
					<rect x="544.999" y="163.809" width="44.67" height="55.353"/>
					<rect x="544.999" y="108.533" fill="#FF0000" width="44.67" height="55.276"/>
					<rect x="544.999" y="53.181" width="44.67" height="55.358"/>
					<rect x="500.324" y="163.809" fill="#FF0000" width="44.675" height="55.353"/>
					<rect x="500.324" y="108.533" width="44.675" height="55.276"/>
					<rect x="500.324" y="53.181" fill="#FF0000" width="44.675" height="55.358"/>
					<rect x="455.651" y="163.809" fill="#FF0000" width="44.673" height="55.353"/>
					<rect x="455.651" y="108.533" width="44.673" height="55.276"/>
					<rect x="455.651" y="53.181" fill="#FF0000" width="44.673" height="55.358"/>
					<rect x="410.962" y="163.809" width="44.692" height="55.353"/>
					<rect x="410.962" y="108.533" fill="#FF0000" width="44.692" height="55.276"/>
					<rect x="410.962" y="53.181" width="44.692" height="55.358"/>
					<rect x="366.152" y="163.809" width="44.81" height="55.353"/>
					<rect x="366.152" y="108.533" width="44.81" height="55.276"/>
					<rect x="366.152" y="53.181" fill="#FF0000" width="44.81" height="55.358"/>
					<rect x="321.477" y="163.809" fill="#FF0000" width="44.677" height="55.353"/>
					<rect x="321.477" y="108.533" width="44.677" height="55.276"/>
					<rect x="321.477" y="53.181" fill="#FF0000" width="44.677" height="55.358"/>
					<rect x="276.804" y="163.809" width="44.671" height="55.353"/>
					<rect x="276.804" y="108.533" fill="#FF0000" width="44.671" height="55.276"/>
					<rect x="276.804" y="53.181" width="44.671" height="55.358"/>
					<rect x="232.13" y="163.809" width="44.675" height="55.353"/>
					<rect x="232.13" y="108.533" width="44.675" height="55.276"/>
					<rect x="232.13" y="53.181" fill="#FF0000" width="44.675" height="55.358"/>
					<rect x="187.456" y="163.809" fill="#FF0000" width="44.674" height="55.353"/>
					<rect x="187.456" y="108.533" width="44.674" height="55.276"/>
					<rect x="187.456" y="53.181" fill="#FF0000" width="44.674" height="55.358"/>
					<rect x="142.783" y="163.809" width="44.673" height="55.353"/>
					<rect x="142.783" y="108.533" fill="#FF0000" width="44.673" height="55.276"/>
					<rect x="142.783" y="53.181" width="44.673" height="55.358"/>
					<rect x="98.093" y="163.809" fill="#FF0000" width="44.689" height="55.353"/>
					<rect x="98.093" y="108.533" width="44.689" height="55.276"/>
					<rect x="98.093" y="53.181" fill="#FF0000" width="44.689" height="55.358"/>
				</g>
				<g>
					<polygon fill="none" stroke="#FFFFFF" points="98.093,108.533 98.093,53.181 142.783,53.181 187.456,53.181 232.13,53.181 
						276.804,53.181 321.477,53.181 366.152,53.181 410.962,53.181 455.651,53.181 500.324,53.181 544.999,53.181 589.672,53.181 
						634.347,53.181 679.02,53.181 679.02,108.533 679.02,163.809 679.02,219.162 634.347,219.162 589.672,219.162 544.999,219.162 
						500.324,219.162 455.651,219.162 410.962,219.162 366.152,219.162 321.477,219.162 276.804,219.162 232.13,219.162 
						187.456,219.162 142.783,219.162 98.093,219.162 98.093,163.809 					"/>
					<polyline fill="none" stroke="#FFFFFF" points="98.093,163.809 142.783,163.809 187.456,163.809 232.13,163.809 
						276.804,163.809 321.477,163.809 366.152,163.809 410.962,163.809 455.651,163.809 500.324,163.809 544.999,163.809 
						589.672,163.809 634.347,163.809 679.02,163.809 					"/>
					<polyline fill="none" stroke="#FFFFFF" points="98.093,108.533 142.783,108.533 187.456,108.533 232.13,108.533 
						276.804,108.533 321.477,108.533 366.152,108.533 410.962,108.533 455.651,108.533 500.324,108.533 544.999,108.533 
						589.672,108.533 634.347,108.533 679.02,108.533 					"/>
					<polyline fill="none" stroke="#FFFFFF" points="634.347,53.181 634.347,108.533 634.347,163.809 634.347,219.162 					"/>
					<polyline fill="none" stroke="#FFFFFF" points="589.672,53.181 589.672,108.533 589.672,163.809 589.672,219.162 					"/>
					<polyline fill="none" stroke="#FFFFFF" points="544.999,53.181 544.999,108.533 544.999,163.809 544.999,219.162 					"/>
					<polyline fill="none" stroke="#FFFFFF" points="500.324,53.181 500.324,108.533 500.324,163.809 500.324,219.162 					"/>
					<polyline fill="none" stroke="#FFFFFF" points="455.651,53.181 455.651,108.533 455.651,163.809 455.651,219.162 					"/>
					<polyline fill="none" stroke="#FFFFFF" points="410.962,53.181 410.962,108.533 410.962,163.809 410.962,219.162 					"/>
					<polyline fill="none" stroke="#FFFFFF" points="366.152,53.181 366.152,108.533 366.152,163.809 366.152,219.162 					"/>
					<polyline fill="none" stroke="#FFFFFF" points="321.477,53.181 321.477,108.533 321.477,163.809 321.477,219.162 					"/>
					<polyline fill="none" stroke="#FFFFFF" points="276.804,53.181 276.804,108.533 276.804,163.809 276.804,219.162 					"/>
					<polyline fill="none" stroke="#FFFFFF" points="232.13,53.181 232.13,108.533 232.13,163.809 232.13,219.162 					"/>
					<polyline fill="none" stroke="#FFFFFF" points="187.456,53.181 187.456,108.533 187.456,163.809 187.456,219.162 					"/>
					<polyline fill="none" stroke="#FFFFFF" points="142.783,53.181 142.783,108.533 142.783,163.809 142.783,219.162 					"/>
				</g>
			</g>
		</g>
		<g>
			<g>
				<g id="XMLID_1_">
					<g>
						<rect x="366.152" y="252.576" width="89.396" height="33.194"/>
						<rect x="276.754" y="252.576" fill="#FF0000" width="89.396" height="33.194"/>
					</g>
					<g>
						<polygon fill="none" stroke="#FFFFFF" points="98.097,252.576 98.097,219.378 276.754,219.378 455.546,219.378 
							634.208,219.378 634.208,252.576 634.208,285.77 544.812,285.77 455.546,285.77 366.152,285.77 276.754,285.77 
							187.491,285.77 98.097,285.77 						"/>
						<polyline fill="none" stroke="#FFFFFF" points="98.097,252.576 187.491,252.576 276.754,252.576 366.152,252.576 
							455.546,252.576 544.812,252.576 634.208,252.576 						"/>
						<line fill="none" stroke="#FFFFFF" x1="544.812" y1="252.576" x2="544.812" y2="285.77"/>
						<polyline fill="none" stroke="#FFFFFF" points="455.546,219.378 455.546,252.576 455.546,285.77 						"/>
						<line fill="none" stroke="#FFFFFF" x1="366.152" y1="252.576" x2="366.152" y2="285.77"/>
						<polyline fill="none" stroke="#FFFFFF" points="276.754,219.378 276.754,252.576 276.754,285.77 						"/>
						<line fill="none" stroke="#FFFFFF" x1="187.491" y1="252.576" x2="187.491" y2="285.77"/>
					</g>
				</g>
			</g>
		</g>
		<path fill="none" stroke="#FFFFFF" d="M98,219.16c-11.309,0-22.617,0-33.925,0l-10.89-84.647l10.89-81.33
			c11.308,0,22.616,0,33.925,0"/>
	</g>
	<g>
		
			<text transform="matrix(-4.371139e-08 -1 1 -4.371139e-08 127.582 198.9058)" fill="#FFFFFF" font-family="'Verdana'" font-size="23.237">1</text>
		
			<text transform="matrix(-4.371139e-08 -1 1 -4.371139e-08 84.3022 144.0566)" fill="#FFFFFF" font-family="'Verdana'" font-size="23.237">0</text>
		
			<text transform="matrix(-4.371139e-08 -1 1 -4.371139e-08 127.582 144.0566)" fill="#FFFFFF" font-family="'Verdana'" font-size="23.237">2</text>
		
			<text transform="matrix(-4.371139e-08 -1 1 -4.371139e-08 127.582 88.1523)" fill="#FFFFFF" font-family="'Verdana'" font-size="23.237">3</text>
		
			<text transform="matrix(-4.371139e-08 -1 1 -4.371139e-08 173.5049 198.9058)" fill="#FFFFFF" font-family="'Verdana'" font-size="23.237">4</text>
		
			<text transform="matrix(-4.371139e-08 -1 1 -4.371139e-08 173.5049 88.1523)" fill="#FFFFFF" font-family="'Verdana'" font-size="23.237">6</text>
		
			<text transform="matrix(-4.371139e-08 -1 1 -4.371139e-08 173.5049 144.0566)" fill="#FFFFFF" font-family="'Verdana'" font-size="23.237">5</text>
		
			<text transform="matrix(-4.371139e-08 -1 1 -4.371139e-08 217.3789 198.9058)" fill="#FFFFFF" font-family="'Verdana'" font-size="23.237">7</text>
		
			<text transform="matrix(-4.371139e-08 -1 1 -4.371139e-08 217.3789 144.0566)" fill="#FFFFFF" font-family="'Verdana'" font-size="23.237">8</text>
		
			<text transform="matrix(-4.371139e-08 -1 1 -4.371139e-08 217.3789 88.1523)" fill="#FFFFFF" font-family="'Verdana'" font-size="23.237">9</text>
		
			<text transform="matrix(-4.371139e-08 -1 1 -4.371139e-08 261.6416 206.2886)" fill="#FFFFFF" font-family="'Verdana'" font-size="23.237">10</text>
		
			<text transform="matrix(-4.371139e-08 -1 1 -4.371139e-08 261.6416 95.54)" fill="#FFFFFF" font-family="'Verdana'" font-size="23.237">12</text>
		
			<text transform="matrix(-4.371139e-08 -1 1 -4.371139e-08 261.6416 151.4453)" fill="#FFFFFF" font-family="'Verdana'" font-size="23.237">11</text>
		
			<text transform="matrix(-4.371139e-08 -1 1 -4.371139e-08 307.542 206.2886)" fill="#FFFFFF" font-family="'Verdana'" font-size="23.237">13</text>
		
			<text transform="matrix(-4.371139e-08 -1 1 -4.371139e-08 307.542 151.4453)" fill="#FFFFFF" font-family="'Verdana'" font-size="23.237">14</text>
		
			<text transform="matrix(-4.371139e-08 -1 1 -4.371139e-08 307.542 95.54)" fill="#FFFFFF" font-family="'Verdana'" font-size="23.237">15</text>
		
			<text transform="matrix(-4.371139e-08 -1 1 -4.371139e-08 351.8076 206.2886)" fill="#FFFFFF" font-family="'Verdana'" font-size="23.237">16</text>
		
			<text transform="matrix(-4.371139e-08 -1 1 -4.371139e-08 351.8076 95.54)" fill="#FFFFFF" font-family="'Verdana'" font-size="23.237">18</text>
		
			<text transform="matrix(-4.371139e-08 -1 1 -4.371139e-08 351.8076 151.4453)" fill="#FFFFFF" font-family="'Verdana'" font-size="23.237">17</text>
		
			<text transform="matrix(-4.371139e-08 -1 1 -4.371139e-08 396.6006 206.2886)" fill="#FFFFFF" font-family="'Verdana'" font-size="23.237">19</text>
		
			<text transform="matrix(-4.371139e-08 -1 1 -4.371139e-08 396.6006 151.4453)" fill="#FFFFFF" font-family="'Verdana'" font-size="23.237">20</text>
		
			<text transform="matrix(-4.371139e-08 -1 1 -4.371139e-08 396.6006 95.54)" fill="#FFFFFF" font-family="'Verdana'" font-size="23.237">21</text>
		
			<text transform="matrix(-4.371139e-08 -1 1 -4.371139e-08 440.8652 206.2886)" fill="#FFFFFF" font-family="'Verdana'" font-size="23.237">22</text>
		
			<text transform="matrix(-4.371139e-08 -1 1 -4.371139e-08 440.8652 95.54)" fill="#FFFFFF" font-family="'Verdana'" font-size="23.237">24</text>
		
			<text transform="matrix(-4.371139e-08 -1 1 -4.371139e-08 440.8652 151.4453)" fill="#FFFFFF" font-family="'Verdana'" font-size="23.237">23</text>
		
			<text transform="matrix(-4.371139e-08 -1 1 -4.371139e-08 486.3955 206.2886)" fill="#FFFFFF" font-family="'Verdana'" font-size="23.237">25</text>
		
			<text transform="matrix(-4.371139e-08 -1 1 -4.371139e-08 486.3984 151.4453)" fill="#FFFFFF" font-family="'Verdana'" font-size="23.237">26</text>
		
			<text transform="matrix(-4.371139e-08 -1 1 -4.371139e-08 486.3955 95.54)" fill="#FFFFFF" font-family="'Verdana'" font-size="23.237">27</text>
		
			<text transform="matrix(-4.371139e-08 -1 1 -4.371139e-08 530.6602 206.2886)" fill="#FFFFFF" font-family="'Verdana'" font-size="23.237">28</text>
		
			<text transform="matrix(-4.371139e-08 -1 1 -4.371139e-08 530.6602 95.54)" fill="#FFFFFF" font-family="'Verdana'" font-size="23.237">30</text>
		
			<text transform="matrix(-4.371139e-08 -1 1 -4.371139e-08 530.6611 151.4453)" fill="#FFFFFF" font-family="'Verdana'" font-size="23.237">29</text>
		
			<text transform="matrix(-4.371139e-08 -1 1 -4.371139e-08 574.7129 206.2886)" fill="#FFFFFF" font-family="'Verdana'" font-size="23.237">31</text>
		
			<text transform="matrix(-4.371139e-08 -1 1 -4.371139e-08 574.7148 151.4453)" fill="#FFFFFF" font-family="'Verdana'" font-size="23.237">32</text>
		
			<text transform="matrix(-4.371139e-08 -1 1 -4.371139e-08 574.7129 95.54)" fill="#FFFFFF" font-family="'Verdana'" font-size="23.237">33</text>
		
			<text transform="matrix(-4.371139e-08 -1 1 -4.371139e-08 618.9766 206.2886)" fill="#FFFFFF" font-family="'Verdana'" font-size="23.237">34</text>
		
			<text transform="matrix(-4.371139e-08 -1 1 -4.371139e-08 618.9766 95.54)" fill="#FFFFFF" font-family="'Verdana'" font-size="23.237">36</text>
		
			<text transform="matrix(-4.371139e-08 -1 1 -4.371139e-08 618.9785 151.4453)" fill="#FFFFFF" font-family="'Verdana'" font-size="23.237">35</text>
		
			<text transform="matrix(-4.371139e-08 -1 1 -4.371139e-08 664.0605 100.8154)" fill="#FFFFFF" font-family="'Verdana'" font-size="23.237">2-1</text>
		
			<text transform="matrix(-4.371139e-08 -1 1 -4.371139e-08 664.0605 211.5659)" fill="#FFFFFF" font-family="'Verdana'" font-size="23.237">2-1</text>
		
			<text transform="matrix(-4.371139e-08 -1 1 -4.371139e-08 664.0605 156.7197)" fill="#FFFFFF" font-family="'Verdana'" font-size="23.237">2-1</text>
		<text transform="matrix(1 0 0 1 155.0083 243.3979)" fill="#FFFFFF" font-family="'Verdana'" font-size="19.9174">1st 12</text>
		<text transform="matrix(1 0 0 1 330.3711 243.3979)" fill="#FFFFFF" font-family="'Verdana'" font-size="19.9174">2nd 12</text>
		<text transform="matrix(1 0 0 1 511.3867 243.397)" fill="#FFFFFF" font-family="'Verdana'" font-size="19.9174">3rd 12</text>
		<text transform="matrix(1 0 0 1 119.6934 276.2681)" fill="#FFFFFF" font-family="'Verdana'" font-size="19.9174">1-18</text>
		<text transform="matrix(1 0 0 1 207.52 276.2681)" fill="#FFFFFF" font-family="'Verdana'" font-size="19.9174">E</text>
		<text transform="matrix(1 0 0 1 220.1143 276.2681)" fill="#FFFFFF" font-family="'Verdana'" font-size="19.9174">v</text>
		<text transform="matrix(1 0 0 1 231.7261 276.2681)" fill="#FFFFFF" font-family="'Verdana'" font-size="19.9174">e</text>
		<text transform="matrix(1 0 0 1 243.5913 276.2681)" fill="#FFFFFF" font-family="'Verdana'" font-size="19.9174">n</text>
		<text transform="matrix(1 0 0 1 479.5469 276.2671)" fill="#FFFFFF" font-family="'Verdana'" font-size="19.9174">Odd</text>
		<text transform="matrix(1 0 0 1 558.9316 276.2681)" fill="#FFFFFF" font-family="'Verdana'" font-size="19.9174">19-36</text>
		<text transform="matrix(1 0 0 1 303.2666 276.2671)" fill="#FFFFFF" font-family="'Verdana'" font-size="19.9174">R</text>
		<text transform="matrix(1 0 0 1 316.6294 276.2671)" fill="#FFFFFF" font-family="'Verdana'" font-size="19.9174">e</text>
		<text transform="matrix(1 0 0 1 328.4941 276.2671)" fill="#FFFFFF" font-family="'Verdana'" font-size="19.9174">d</text>
		<text transform="matrix(1 0 0 1 385.5225 276.2671)" fill="#FFFFFF" font-family="'Verdana'" font-size="19.9174">Black</text>
	</g>
</g>
</svg>
