<?xml version="1.0" encoding="utf-8"?>
<!-- Generator: Adobe Illustrator 16.0.0, SVG Export Plug-In . SVG Version: 6.00 Build 0)  -->
<!DOCTYPE svg PUBLIC "-//W3C//DTD SVG 1.1 Tiny//EN" "http://www.w3.org/Graphics/SVG/1.1/DTD/svg11-tiny.dtd">
<svg version="1.1" baseProfile="tiny" id="Layer_1" xmlns="http://www.w3.org/2000/svg" xmlns:xlink="http://www.w3.org/1999/xlink"
	 x="0px" y="0px" width="1200px" height="338.952px" viewBox="0 0 1200 338.952" xml:space="preserve">
<rect x="-2.182" fill="#006837" width="1202.182" height="338.952"/>
<g>
	<g>
		<g>
			<g id="XMLID_3_">
				<g>
					<rect x="849.672" y="163.809" fill="#FF0000" width="44.675" height="55.353"/>
					<rect x="849.672" y="108.533" width="44.675" height="55.276"/>
					<rect x="849.672" y="53.181" fill="#FF0000" width="44.675" height="55.358"/>
					<rect x="804.999" y="163.809" width="44.67" height="55.353"/>
					<rect x="804.999" y="108.533" fill="#FF0000" width="44.67" height="55.276"/>
					<rect x="804.999" y="53.181" width="44.67" height="55.358"/>
					<rect x="760.324" y="163.809" fill="#FF0000" width="44.675" height="55.353"/>
					<rect x="760.324" y="108.533" width="44.675" height="55.276"/>
					<rect x="760.324" y="53.181" fill="#FF0000" width="44.675" height="55.358"/>
					<rect x="715.651" y="163.809" fill="#FF0000" width="44.673" height="55.353"/>
					<rect x="715.651" y="108.533" width="44.673" height="55.276"/>
					<rect x="715.651" y="53.181" fill="#FF0000" width="44.673" height="55.358"/>
					<rect x="670.962" y="163.809" width="44.692" height="55.353"/>
					<rect x="670.962" y="108.533" fill="#FF0000" width="44.692" height="55.276"/>
					<rect x="670.962" y="53.181" width="44.692" height="55.358"/>
					<rect x="626.152" y="163.809" width="44.81" height="55.353"/>
					<rect x="626.152" y="108.533" width="44.81" height="55.276"/>
					<rect x="626.152" y="53.181" fill="#FF0000" width="44.81" height="55.358"/>
					<rect x="581.477" y="163.809" fill="#FF0000" width="44.676" height="55.353"/>
					<rect x="581.477" y="108.533" width="44.676" height="55.276"/>
					<rect x="581.477" y="53.181" fill="#FF0000" width="44.676" height="55.358"/>
					<rect x="536.804" y="163.809" width="44.671" height="55.353"/>
					<rect x="536.804" y="108.533" fill="#FF0000" width="44.671" height="55.276"/>
					<rect x="536.804" y="53.181" width="44.671" height="55.358"/>
					<rect x="492.13" y="163.809" width="44.675" height="55.353"/>
					<rect x="492.13" y="108.533" width="44.675" height="55.276"/>
					<rect x="492.13" y="53.181" fill="#FF0000" width="44.675" height="55.358"/>
					<rect x="447.456" y="163.809" fill="#FF0000" width="44.674" height="55.353"/>
					<rect x="447.456" y="108.533" width="44.674" height="55.276"/>
					<rect x="447.456" y="53.181" fill="#FF0000" width="44.674" height="55.358"/>
					<rect x="402.783" y="163.809" width="44.673" height="55.353"/>
					<rect x="402.783" y="108.533" fill="#FF0000" width="44.673" height="55.276"/>
					<rect x="402.783" y="53.181" width="44.673" height="55.358"/>
					<rect x="358.093" y="163.809" fill="#FF0000" width="44.689" height="55.353"/>
					<rect x="358.093" y="108.533" width="44.689" height="55.276"/>
					<rect x="358.093" y="53.181" fill="#FF0000" width="44.689" height="55.358"/>
				</g>
				<g>
					<polygon fill="none" stroke="#FFFFFF" points="358.093,108.533 358.093,53.181 402.783,53.181 447.456,53.181 492.13,53.181 
						536.804,53.181 581.477,53.181 626.152,53.181 670.962,53.181 715.651,53.181 760.324,53.181 804.999,53.181 849.672,53.181 
						894.347,53.181 939.019,53.181 939.019,108.533 939.019,163.809 939.019,219.162 894.347,219.162 849.672,219.162 
						804.999,219.162 760.324,219.162 715.651,219.162 670.962,219.162 626.152,219.162 581.477,219.162 536.804,219.162 
						492.13,219.162 447.456,219.162 402.783,219.162 358.093,219.162 358.093,163.809 					"/>
					<polyline fill="none" stroke="#FFFFFF" points="358.093,163.809 402.783,163.809 447.456,163.809 492.13,163.809 
						536.804,163.809 581.477,163.809 626.152,163.809 670.962,163.809 715.651,163.809 760.324,163.809 804.999,163.809 
						849.672,163.809 894.347,163.809 939.019,163.809 					"/>
					<polyline fill="none" stroke="#FFFFFF" points="358.093,108.533 402.783,108.533 447.456,108.533 492.13,108.533 
						536.804,108.533 581.477,108.533 626.152,108.533 670.962,108.533 715.651,108.533 760.324,108.533 804.999,108.533 
						849.672,108.533 894.347,108.533 939.019,108.533 					"/>
					<polyline fill="none" stroke="#FFFFFF" points="894.347,53.181 894.347,108.533 894.347,163.809 894.347,219.162 					"/>
					<polyline fill="none" stroke="#FFFFFF" points="849.672,53.181 849.672,108.533 849.672,163.809 849.672,219.162 					"/>
					<polyline fill="none" stroke="#FFFFFF" points="804.999,53.181 804.999,108.533 804.999,163.809 804.999,219.162 					"/>
					<polyline fill="none" stroke="#FFFFFF" points="760.324,53.181 760.324,108.533 760.324,163.809 760.324,219.162 					"/>
					<polyline fill="none" stroke="#FFFFFF" points="715.651,53.181 715.651,108.533 715.651,163.809 715.651,219.162 					"/>
					<polyline fill="none" stroke="#FFFFFF" points="670.962,53.181 670.962,108.533 670.962,163.809 670.962,219.162 					"/>
					<polyline fill="none" stroke="#FFFFFF" points="626.152,53.181 626.152,108.533 626.152,163.809 626.152,219.162 					"/>
					<polyline fill="none" stroke="#FFFFFF" points="581.477,53.181 581.477,108.533 581.477,163.809 581.477,219.162 					"/>
					<polyline fill="none" stroke="#FFFFFF" points="536.804,53.181 536.804,108.533 536.804,163.809 536.804,219.162 					"/>
					<polyline fill="none" stroke="#FFFFFF" points="492.13,53.181 492.13,108.533 492.13,163.809 492.13,219.162 					"/>
					<polyline fill="none" stroke="#FFFFFF" points="447.456,53.181 447.456,108.533 447.456,163.809 447.456,219.162 					"/>
					<polyline fill="none" stroke="#FFFFFF" points="402.783,53.181 402.783,108.533 402.783,163.809 402.783,219.162 					"/>
				</g>
			</g>
		</g>
		<g>
			<g>
				<g id="XMLID_1_">
					<g>
						<rect x="626.152" y="252.575" width="89.396" height="33.195"/>
						<rect x="536.754" y="252.575" fill="#FF0000" width="89.396" height="33.195"/>
					</g>
					<g>
						<polygon fill="none" stroke="#FFFFFF" points="358.097,252.575 358.097,219.379 536.754,219.379 715.546,219.379 
							894.208,219.379 894.208,252.575 894.208,285.77 804.812,285.77 715.546,285.77 626.152,285.77 536.754,285.77 
							447.491,285.77 358.097,285.77 						"/>
						<polyline fill="none" stroke="#FFFFFF" points="358.097,252.575 447.491,252.575 536.754,252.575 626.152,252.575 
							715.546,252.575 804.812,252.575 894.208,252.575 						"/>
						<line fill="none" stroke="#FFFFFF" x1="804.812" y1="252.575" x2="804.812" y2="285.77"/>
						<polyline fill="none" stroke="#FFFFFF" points="715.546,219.379 715.546,252.575 715.546,285.77 						"/>
						<line fill="none" stroke="#FFFFFF" x1="626.152" y1="252.575" x2="626.152" y2="285.77"/>
						<polyline fill="none" stroke="#FFFFFF" points="536.754,219.379 536.754,252.575 536.754,285.77 						"/>
						<line fill="none" stroke="#FFFFFF" x1="447.491" y1="252.575" x2="447.491" y2="285.77"/>
					</g>
				</g>
			</g>
		</g>
		<path fill="none" stroke="#FFFFFF" d="M358,219.16c-11.309,0-22.617,0-33.925,0l-10.89-84.648l10.89-81.33
			c11.308,0,22.616,0,33.925,0"/>
	</g>
	<g>
		
			<text transform="matrix(-4.371139e-08 -1 1 -4.371139e-08 387.582 198.9067)" fill="#FFFFFF" font-family="'Verdana'" font-size="23.237">1</text>
		
			<text transform="matrix(-4.371139e-08 -1 1 -4.371139e-08 344.3022 144.0571)" fill="#FFFFFF" font-family="'Verdana'" font-size="23.237">0</text>
		
			<text transform="matrix(-4.371139e-08 -1 1 -4.371139e-08 387.582 144.0571)" fill="#FFFFFF" font-family="'Verdana'" font-size="23.237">2</text>
		
			<text transform="matrix(-4.371139e-08 -1 1 -4.371139e-08 387.582 88.1528)" fill="#FFFFFF" font-family="'Verdana'" font-size="23.237">3</text>
		
			<text transform="matrix(-4.371139e-08 -1 1 -4.371139e-08 433.5049 198.9067)" fill="#FFFFFF" font-family="'Verdana'" font-size="23.237">4</text>
		
			<text transform="matrix(-4.371139e-08 -1 1 -4.371139e-08 433.5049 88.1528)" fill="#FFFFFF" font-family="'Verdana'" font-size="23.237">6</text>
		
			<text transform="matrix(-4.371139e-08 -1 1 -4.371139e-08 433.5049 144.0571)" fill="#FFFFFF" font-family="'Verdana'" font-size="23.237">5</text>
		
			<text transform="matrix(-4.371139e-08 -1 1 -4.371139e-08 477.3789 198.9067)" fill="#FFFFFF" font-family="'Verdana'" font-size="23.237">7</text>
		
			<text transform="matrix(-4.371139e-08 -1 1 -4.371139e-08 477.3789 144.0571)" fill="#FFFFFF" font-family="'Verdana'" font-size="23.237">8</text>
		
			<text transform="matrix(-4.371139e-08 -1 1 -4.371139e-08 477.3789 88.1528)" fill="#FFFFFF" font-family="'Verdana'" font-size="23.237">9</text>
		
			<text transform="matrix(-4.371139e-08 -1 1 -4.371139e-08 521.6416 206.2896)" fill="#FFFFFF" font-family="'Verdana'" font-size="23.237">10</text>
		
			<text transform="matrix(-4.371139e-08 -1 1 -4.371139e-08 521.6416 95.541)" fill="#FFFFFF" font-family="'Verdana'" font-size="23.237">12</text>
		
			<text transform="matrix(-4.371139e-08 -1 1 -4.371139e-08 521.6416 151.4458)" fill="#FFFFFF" font-family="'Verdana'" font-size="23.237">11</text>
		
			<text transform="matrix(-4.371139e-08 -1 1 -4.371139e-08 567.542 206.2896)" fill="#FFFFFF" font-family="'Verdana'" font-size="23.237">13</text>
		
			<text transform="matrix(-4.371139e-08 -1 1 -4.371139e-08 567.542 151.4458)" fill="#FFFFFF" font-family="'Verdana'" font-size="23.237">14</text>
		
			<text transform="matrix(-4.371139e-08 -1 1 -4.371139e-08 567.542 95.541)" fill="#FFFFFF" font-family="'Verdana'" font-size="23.237">15</text>
		
			<text transform="matrix(-4.371139e-08 -1 1 -4.371139e-08 611.8076 206.2896)" fill="#FFFFFF" font-family="'Verdana'" font-size="23.237">16</text>
		
			<text transform="matrix(-4.371139e-08 -1 1 -4.371139e-08 611.8076 95.541)" fill="#FFFFFF" font-family="'Verdana'" font-size="23.237">18</text>
		
			<text transform="matrix(-4.371139e-08 -1 1 -4.371139e-08 611.8076 151.4458)" fill="#FFFFFF" font-family="'Verdana'" font-size="23.237">17</text>
		
			<text transform="matrix(-4.371139e-08 -1 1 -4.371139e-08 656.6006 206.2896)" fill="#FFFFFF" font-family="'Verdana'" font-size="23.237">19</text>
		
			<text transform="matrix(-4.371139e-08 -1 1 -4.371139e-08 656.6006 151.4458)" fill="#FFFFFF" font-family="'Verdana'" font-size="23.237">20</text>
		
			<text transform="matrix(-4.371139e-08 -1 1 -4.371139e-08 656.6006 95.541)" fill="#FFFFFF" font-family="'Verdana'" font-size="23.237">21</text>
		
			<text transform="matrix(-4.371139e-08 -1 1 -4.371139e-08 700.8652 206.2896)" fill="#FFFFFF" font-family="'Verdana'" font-size="23.237">22</text>
		
			<text transform="matrix(-4.371139e-08 -1 1 -4.371139e-08 700.8652 95.541)" fill="#FFFFFF" font-family="'Verdana'" font-size="23.237">24</text>
		
			<text transform="matrix(-4.371139e-08 -1 1 -4.371139e-08 700.8652 151.4458)" fill="#FFFFFF" font-family="'Verdana'" font-size="23.237">23</text>
		
			<text transform="matrix(-4.371139e-08 -1 1 -4.371139e-08 746.3955 206.2896)" fill="#FFFFFF" font-family="'Verdana'" font-size="23.237">25</text>
		
			<text transform="matrix(-4.371139e-08 -1 1 -4.371139e-08 746.3984 151.4458)" fill="#FFFFFF" font-family="'Verdana'" font-size="23.237">26</text>
		
			<text transform="matrix(-4.371139e-08 -1 1 -4.371139e-08 746.3955 95.541)" fill="#FFFFFF" font-family="'Verdana'" font-size="23.237">27</text>
		
			<text transform="matrix(-4.371139e-08 -1 1 -4.371139e-08 790.6602 206.2896)" fill="#FFFFFF" font-family="'Verdana'" font-size="23.237">28</text>
		
			<text transform="matrix(-4.371139e-08 -1 1 -4.371139e-08 790.6602 95.541)" fill="#FFFFFF" font-family="'Verdana'" font-size="23.237">30</text>
		
			<text transform="matrix(-4.371139e-08 -1 1 -4.371139e-08 790.6611 151.4458)" fill="#FFFFFF" font-family="'Verdana'" font-size="23.237">29</text>
		
			<text transform="matrix(-4.371139e-08 -1 1 -4.371139e-08 834.7129 206.2896)" fill="#FFFFFF" font-family="'Verdana'" font-size="23.237">31</text>
		
			<text transform="matrix(-4.371139e-08 -1 1 -4.371139e-08 834.7148 151.4458)" fill="#FFFFFF" font-family="'Verdana'" font-size="23.237">32</text>
		
			<text transform="matrix(-4.371139e-08 -1 1 -4.371139e-08 834.7129 95.541)" fill="#FFFFFF" font-family="'Verdana'" font-size="23.237">33</text>
		
			<text transform="matrix(-4.371139e-08 -1 1 -4.371139e-08 878.9766 206.2896)" fill="#FFFFFF" font-family="'Verdana'" font-size="23.237">34</text>
		
			<text transform="matrix(-4.371139e-08 -1 1 -4.371139e-08 878.9766 95.541)" fill="#FFFFFF" font-family="'Verdana'" font-size="23.237">36</text>
		
			<text transform="matrix(-4.371139e-08 -1 1 -4.371139e-08 878.9785 151.4458)" fill="#FFFFFF" font-family="'Verdana'" font-size="23.237">35</text>
		
			<text transform="matrix(-4.371139e-08 -1 1 -4.371139e-08 924.0605 100.8159)" fill="#FFFFFF" font-family="'Verdana'" font-size="23.237">2-1</text>
		
			<text transform="matrix(-4.371139e-08 -1 1 -4.371139e-08 924.0605 211.5669)" fill="#FFFFFF" font-family="'Verdana'" font-size="23.237">2-1</text>
		
			<text transform="matrix(-4.371139e-08 -1 1 -4.371139e-08 924.0605 156.7197)" fill="#FFFFFF" font-family="'Verdana'" font-size="23.237">2-1</text>
		<text transform="matrix(1 0 0 1 415.0083 243.3989)" fill="#FFFFFF" font-family="'Verdana'" font-size="19.9174">1st 12</text>
		<text transform="matrix(1 0 0 1 590.3711 243.3989)" fill="#FFFFFF" font-family="'Verdana'" font-size="19.9174">2nd 12</text>
		<text transform="matrix(1 0 0 1 771.3867 243.397)" fill="#FFFFFF" font-family="'Verdana'" font-size="19.9174">3rd 12</text>
		<text transform="matrix(1 0 0 1 379.6934 276.269)" fill="#FFFFFF" font-family="'Verdana'" font-size="19.9174">1-18</text>
		<text transform="matrix(1 0 0 1 467.52 276.269)" fill="#FFFFFF" font-family="'Verdana'" font-size="19.9174">E</text>
		<text transform="matrix(1 0 0 1 480.1143 276.269)" fill="#FFFFFF" font-family="'Verdana'" font-size="19.9174">v</text>
		<text transform="matrix(1 0 0 1 491.7261 276.269)" fill="#FFFFFF" font-family="'Verdana'" font-size="19.9174">e</text>
		<text transform="matrix(1 0 0 1 503.5913 276.269)" fill="#FFFFFF" font-family="'Verdana'" font-size="19.9174">n</text>
		<text transform="matrix(1 0 0 1 739.5469 276.2671)" fill="#FFFFFF" font-family="'Verdana'" font-size="19.9174">Odd</text>
		<text transform="matrix(1 0 0 1 818.9316 276.269)" fill="#FFFFFF" font-family="'Verdana'" font-size="19.9174">19-36</text>
		<text transform="matrix(1 0 0 1 563.2666 276.2671)" fill="#FFFFFF" font-family="'Verdana'" font-size="19.9174">R</text>
		<text transform="matrix(1 0 0 1 576.6294 276.2671)" fill="#FFFFFF" font-family="'Verdana'" font-size="19.9174">e</text>
		<text transform="matrix(1 0 0 1 588.4941 276.2671)" fill="#FFFFFF" font-family="'Verdana'" font-size="19.9174">d</text>
		<text transform="matrix(1 0 0 1 645.5225 276.2671)" fill="#FFFFFF" font-family="'Verdana'" font-size="19.9174">Black</text>
	</g>
</g>
</svg>
