<?xml version="1.0" encoding="utf-8"?>
<!-- Generator: Adobe Illustrator 16.0.0, SVG Export Plug-In . SVG Version: 6.00 Build 0)  -->
<!DOCTYPE svg PUBLIC "-//W3C//DTD SVG 1.1//EN" "http://www.w3.org/Graphics/SVG/1.1/DTD/svg11.dtd">
<svg version="1.1" id="Layer_1" xmlns="http://www.w3.org/2000/svg" xmlns:xlink="http://www.w3.org/1999/xlink" x="0px" y="0px"
	 width="2000px" height="338.953px" viewBox="0 0 2000 338.953" enable-background="new 0 0 2000 338.953" xml:space="preserve">
<rect fill="#006837" width="2000" height="338.953"/>
<g>
	<g>
		<g>
			<g id="XMLID_3_">
				<g>
					<rect x="859.672" y="163.809" fill="#FF0000" width="44.675" height="55.353"/>
					<rect x="859.672" y="108.533" width="44.675" height="55.276"/>
					<rect x="859.672" y="53.181" fill="#FF0000" width="44.675" height="55.358"/>
					<rect x="814.999" y="163.809" width="44.67" height="55.353"/>
					<rect x="814.999" y="108.533" fill="#FF0000" width="44.67" height="55.276"/>
					<rect x="814.999" y="53.181" width="44.67" height="55.358"/>
					<rect x="770.324" y="163.809" fill="#FF0000" width="44.675" height="55.353"/>
					<rect x="770.324" y="108.533" width="44.675" height="55.276"/>
					<rect x="770.324" y="53.181" fill="#FF0000" width="44.675" height="55.358"/>
					<rect x="725.651" y="163.809" fill="#FF0000" width="44.673" height="55.353"/>
					<rect x="725.651" y="108.533" width="44.673" height="55.276"/>
					<rect x="725.651" y="53.181" fill="#FF0000" width="44.673" height="55.358"/>
					<rect x="680.962" y="163.809" width="44.692" height="55.353"/>
					<rect x="680.962" y="108.533" fill="#FF0000" width="44.692" height="55.276"/>
					<rect x="680.962" y="53.181" width="44.692" height="55.358"/>
					<rect x="636.152" y="163.809" width="44.81" height="55.353"/>
					<rect x="636.152" y="108.533" width="44.81" height="55.276"/>
					<rect x="636.152" y="53.181" fill="#FF0000" width="44.81" height="55.358"/>
					<rect x="591.477" y="163.809" fill="#FF0000" width="44.677" height="55.353"/>
					<rect x="591.477" y="108.533" width="44.677" height="55.276"/>
					<rect x="591.477" y="53.181" fill="#FF0000" width="44.677" height="55.358"/>
					<rect x="546.804" y="163.809" width="44.671" height="55.353"/>
					<rect x="546.804" y="108.533" fill="#FF0000" width="44.671" height="55.276"/>
					<rect x="546.804" y="53.181" width="44.671" height="55.358"/>
					<rect x="502.13" y="163.809" width="44.675" height="55.353"/>
					<rect x="502.13" y="108.533" width="44.675" height="55.276"/>
					<rect x="502.13" y="53.181" fill="#FF0000" width="44.675" height="55.358"/>
					<rect x="457.456" y="163.809" fill="#FF0000" width="44.674" height="55.353"/>
					<rect x="457.456" y="108.533" width="44.674" height="55.276"/>
					<rect x="457.456" y="53.181" fill="#FF0000" width="44.674" height="55.358"/>
					<rect x="412.783" y="163.809" width="44.673" height="55.353"/>
					<rect x="412.783" y="108.533" fill="#FF0000" width="44.673" height="55.276"/>
					<rect x="412.783" y="53.181" width="44.673" height="55.358"/>
					<rect x="368.093" y="163.809" fill="#FF0000" width="44.689" height="55.353"/>
					<rect x="368.093" y="108.533" width="44.689" height="55.276"/>
					<rect x="368.093" y="53.181" fill="#FF0000" width="44.689" height="55.358"/>
				</g>
				<g>
					<polygon fill="none" stroke="#FFFFFF" points="368.093,108.533 368.093,53.181 412.783,53.181 457.456,53.181 502.13,53.181 
						546.804,53.181 591.477,53.181 636.152,53.181 680.962,53.181 725.651,53.181 770.324,53.181 814.999,53.181 859.672,53.181 
						904.347,53.181 949.02,53.181 949.02,108.533 949.02,163.809 949.02,219.162 904.347,219.162 859.672,219.162 814.999,219.162 
						770.324,219.162 725.651,219.162 680.962,219.162 636.152,219.162 591.477,219.162 546.804,219.162 502.13,219.162 
						457.456,219.162 412.783,219.162 368.093,219.162 368.093,163.809 					"/>
					<polyline fill="none" stroke="#FFFFFF" points="368.093,163.809 412.783,163.809 457.456,163.809 502.13,163.809 
						546.804,163.809 591.477,163.809 636.152,163.809 680.962,163.809 725.651,163.809 770.324,163.809 814.999,163.809 
						859.672,163.809 904.347,163.809 949.02,163.809 					"/>
					<polyline fill="none" stroke="#FFFFFF" points="368.093,108.533 412.783,108.533 457.456,108.533 502.13,108.533 
						546.804,108.533 591.477,108.533 636.152,108.533 680.962,108.533 725.651,108.533 770.324,108.533 814.999,108.533 
						859.672,108.533 904.347,108.533 949.02,108.533 					"/>
					<polyline fill="none" stroke="#FFFFFF" points="904.347,53.181 904.347,108.533 904.347,163.809 904.347,219.162 					"/>
					<polyline fill="none" stroke="#FFFFFF" points="859.672,53.181 859.672,108.533 859.672,163.809 859.672,219.162 					"/>
					<polyline fill="none" stroke="#FFFFFF" points="814.999,53.181 814.999,108.533 814.999,163.809 814.999,219.162 					"/>
					<polyline fill="none" stroke="#FFFFFF" points="770.324,53.181 770.324,108.533 770.324,163.809 770.324,219.162 					"/>
					<polyline fill="none" stroke="#FFFFFF" points="725.651,53.181 725.651,108.533 725.651,163.809 725.651,219.162 					"/>
					<polyline fill="none" stroke="#FFFFFF" points="680.962,53.181 680.962,108.533 680.962,163.809 680.962,219.162 					"/>
					<polyline fill="none" stroke="#FFFFFF" points="636.152,53.181 636.152,108.533 636.152,163.809 636.152,219.162 					"/>
					<polyline fill="none" stroke="#FFFFFF" points="591.477,53.181 591.477,108.533 591.477,163.809 591.477,219.162 					"/>
					<polyline fill="none" stroke="#FFFFFF" points="546.804,53.181 546.804,108.533 546.804,163.809 546.804,219.162 					"/>
					<polyline fill="none" stroke="#FFFFFF" points="502.13,53.181 502.13,108.533 502.13,163.809 502.13,219.162 					"/>
					<polyline fill="none" stroke="#FFFFFF" points="457.456,53.181 457.456,108.533 457.456,163.809 457.456,219.162 					"/>
					<polyline fill="none" stroke="#FFFFFF" points="412.783,53.181 412.783,108.533 412.783,163.809 412.783,219.162 					"/>
				</g>
			</g>
		</g>
		<g>
			<g>
				<g id="XMLID_1_">
					<g>
						<rect x="636.152" y="252.576" width="89.396" height="33.193"/>
						<rect x="546.754" y="252.576" fill="#FF0000" width="89.396" height="33.193"/>
					</g>
					<g>
						<polygon fill="none" stroke="#FFFFFF" points="368.097,252.576 368.097,219.378 546.754,219.378 725.546,219.378 
							904.208,219.378 904.208,252.576 904.208,285.77 814.812,285.77 725.546,285.77 636.152,285.77 546.754,285.77 
							457.491,285.77 368.097,285.77 						"/>
						<polyline fill="none" stroke="#FFFFFF" points="368.097,252.576 457.491,252.576 546.754,252.576 636.152,252.576 
							725.546,252.576 814.812,252.576 904.208,252.576 						"/>
						<line fill="none" stroke="#FFFFFF" x1="814.812" y1="252.576" x2="814.812" y2="285.77"/>
						<polyline fill="none" stroke="#FFFFFF" points="725.546,219.378 725.546,252.576 725.546,285.77 						"/>
						<line fill="none" stroke="#FFFFFF" x1="636.152" y1="252.576" x2="636.152" y2="285.77"/>
						<polyline fill="none" stroke="#FFFFFF" points="546.754,219.378 546.754,252.576 546.754,285.77 						"/>
						<line fill="none" stroke="#FFFFFF" x1="457.491" y1="252.576" x2="457.491" y2="285.77"/>
					</g>
				</g>
			</g>
		</g>
		<path fill="none" stroke="#FFFFFF" d="M368,219.16c-11.309,0-22.617,0-33.925,0l-10.89-84.647l10.89-81.33
			c11.308,0,22.616,0,33.925,0"/>
	</g>
	<g>
		
			<text transform="matrix(-4.371139e-08 -1 1 -4.371139e-08 397.582 198.9062)" fill="#FFFFFF" font-family="'Verdana'" font-size="23.237">1</text>
		
			<text transform="matrix(-4.371139e-08 -1 1 -4.371139e-08 354.3022 144.0562)" fill="#FFFFFF" font-family="'Verdana'" font-size="23.237">0</text>
		
			<text transform="matrix(-4.371139e-08 -1 1 -4.371139e-08 397.582 144.0562)" fill="#FFFFFF" font-family="'Verdana'" font-size="23.237">2</text>
		
			<text transform="matrix(-4.371139e-08 -1 1 -4.371139e-08 397.582 88.1519)" fill="#FFFFFF" font-family="'Verdana'" font-size="23.237">3</text>
		
			<text transform="matrix(-4.371139e-08 -1 1 -4.371139e-08 443.5049 198.9062)" fill="#FFFFFF" font-family="'Verdana'" font-size="23.237">4</text>
		
			<text transform="matrix(-4.371139e-08 -1 1 -4.371139e-08 443.5049 88.1519)" fill="#FFFFFF" font-family="'Verdana'" font-size="23.237">6</text>
		
			<text transform="matrix(-4.371139e-08 -1 1 -4.371139e-08 443.5049 144.0562)" fill="#FFFFFF" font-family="'Verdana'" font-size="23.237">5</text>
		
			<text transform="matrix(-4.371139e-08 -1 1 -4.371139e-08 487.3789 198.9062)" fill="#FFFFFF" font-family="'Verdana'" font-size="23.237">7</text>
		
			<text transform="matrix(-4.371139e-08 -1 1 -4.371139e-08 487.3789 144.0562)" fill="#FFFFFF" font-family="'Verdana'" font-size="23.237">8</text>
		
			<text transform="matrix(-4.371139e-08 -1 1 -4.371139e-08 487.3789 88.1519)" fill="#FFFFFF" font-family="'Verdana'" font-size="23.237">9</text>
		
			<text transform="matrix(-4.371139e-08 -1 1 -4.371139e-08 531.6416 206.2891)" fill="#FFFFFF" font-family="'Verdana'" font-size="23.237">10</text>
		
			<text transform="matrix(-4.371139e-08 -1 1 -4.371139e-08 531.6416 95.5405)" fill="#FFFFFF" font-family="'Verdana'" font-size="23.237">12</text>
		
			<text transform="matrix(-4.371139e-08 -1 1 -4.371139e-08 531.6416 151.4448)" fill="#FFFFFF" font-family="'Verdana'" font-size="23.237">11</text>
		
			<text transform="matrix(-4.371139e-08 -1 1 -4.371139e-08 577.542 206.2891)" fill="#FFFFFF" font-family="'Verdana'" font-size="23.237">13</text>
		
			<text transform="matrix(-4.371139e-08 -1 1 -4.371139e-08 577.542 151.4448)" fill="#FFFFFF" font-family="'Verdana'" font-size="23.237">14</text>
		
			<text transform="matrix(-4.371139e-08 -1 1 -4.371139e-08 577.542 95.5405)" fill="#FFFFFF" font-family="'Verdana'" font-size="23.237">15</text>
		
			<text transform="matrix(-4.371139e-08 -1 1 -4.371139e-08 621.8076 206.2891)" fill="#FFFFFF" font-family="'Verdana'" font-size="23.237">16</text>
		
			<text transform="matrix(-4.371139e-08 -1 1 -4.371139e-08 621.8076 95.5405)" fill="#FFFFFF" font-family="'Verdana'" font-size="23.237">18</text>
		
			<text transform="matrix(-4.371139e-08 -1 1 -4.371139e-08 621.8076 151.4448)" fill="#FFFFFF" font-family="'Verdana'" font-size="23.237">17</text>
		
			<text transform="matrix(-4.371139e-08 -1 1 -4.371139e-08 666.6006 206.2891)" fill="#FFFFFF" font-family="'Verdana'" font-size="23.237">19</text>
		
			<text transform="matrix(-4.371139e-08 -1 1 -4.371139e-08 666.6006 151.4448)" fill="#FFFFFF" font-family="'Verdana'" font-size="23.237">20</text>
		
			<text transform="matrix(-4.371139e-08 -1 1 -4.371139e-08 666.6006 95.5405)" fill="#FFFFFF" font-family="'Verdana'" font-size="23.237">21</text>
		
			<text transform="matrix(-4.371139e-08 -1 1 -4.371139e-08 710.8652 206.2891)" fill="#FFFFFF" font-family="'Verdana'" font-size="23.237">22</text>
		
			<text transform="matrix(-4.371139e-08 -1 1 -4.371139e-08 710.8652 95.5405)" fill="#FFFFFF" font-family="'Verdana'" font-size="23.237">24</text>
		
			<text transform="matrix(-4.371139e-08 -1 1 -4.371139e-08 710.8652 151.4448)" fill="#FFFFFF" font-family="'Verdana'" font-size="23.237">23</text>
		
			<text transform="matrix(-4.371139e-08 -1 1 -4.371139e-08 756.3955 206.2891)" fill="#FFFFFF" font-family="'Verdana'" font-size="23.237">25</text>
		
			<text transform="matrix(-4.371139e-08 -1 1 -4.371139e-08 756.3984 151.4448)" fill="#FFFFFF" font-family="'Verdana'" font-size="23.237">26</text>
		
			<text transform="matrix(-4.371139e-08 -1 1 -4.371139e-08 756.3955 95.5405)" fill="#FFFFFF" font-family="'Verdana'" font-size="23.237">27</text>
		
			<text transform="matrix(-4.371139e-08 -1 1 -4.371139e-08 800.6602 206.2891)" fill="#FFFFFF" font-family="'Verdana'" font-size="23.237">28</text>
		
			<text transform="matrix(-4.371139e-08 -1 1 -4.371139e-08 800.6602 95.5405)" fill="#FFFFFF" font-family="'Verdana'" font-size="23.237">30</text>
		
			<text transform="matrix(-4.371139e-08 -1 1 -4.371139e-08 800.6611 151.4448)" fill="#FFFFFF" font-family="'Verdana'" font-size="23.237">29</text>
		
			<text transform="matrix(-4.371139e-08 -1 1 -4.371139e-08 844.7129 206.2891)" fill="#FFFFFF" font-family="'Verdana'" font-size="23.237">31</text>
		
			<text transform="matrix(-4.371139e-08 -1 1 -4.371139e-08 844.7148 151.4448)" fill="#FFFFFF" font-family="'Verdana'" font-size="23.237">32</text>
		
			<text transform="matrix(-4.371139e-08 -1 1 -4.371139e-08 844.7129 95.5405)" fill="#FFFFFF" font-family="'Verdana'" font-size="23.237">33</text>
		
			<text transform="matrix(-4.371139e-08 -1 1 -4.371139e-08 888.9766 206.2891)" fill="#FFFFFF" font-family="'Verdana'" font-size="23.237">34</text>
		
			<text transform="matrix(-4.371139e-08 -1 1 -4.371139e-08 888.9766 95.5405)" fill="#FFFFFF" font-family="'Verdana'" font-size="23.237">36</text>
		
			<text transform="matrix(-4.371139e-08 -1 1 -4.371139e-08 888.9785 151.4448)" fill="#FFFFFF" font-family="'Verdana'" font-size="23.237">35</text>
		
			<text transform="matrix(-4.371139e-08 -1 1 -4.371139e-08 934.0605 100.8159)" fill="#FFFFFF" font-family="'Verdana'" font-size="23.237">2-1</text>
		
			<text transform="matrix(-4.371139e-08 -1 1 -4.371139e-08 934.0605 211.5664)" fill="#FFFFFF" font-family="'Verdana'" font-size="23.237">2-1</text>
		
			<text transform="matrix(-4.371139e-08 -1 1 -4.371139e-08 934.0605 156.7202)" fill="#FFFFFF" font-family="'Verdana'" font-size="23.237">2-1</text>
		<text transform="matrix(1 0 0 1 425.0083 243.3975)" fill="#FFFFFF" font-family="'Verdana'" font-size="19.9174">1st 12</text>
		<text transform="matrix(1 0 0 1 600.3711 243.3975)" fill="#FFFFFF" font-family="'Verdana'" font-size="19.9174">2nd 12</text>
		<text transform="matrix(1 0 0 1 781.3867 243.3975)" fill="#FFFFFF" font-family="'Verdana'" font-size="19.9174">3rd 12</text>
		<text transform="matrix(1 0 0 1 389.6934 276.2686)" fill="#FFFFFF" font-family="'Verdana'" font-size="19.9174">1-18</text>
		<text transform="matrix(1 0 0 1 477.52 276.2686)" fill="#FFFFFF" font-family="'Verdana'" font-size="19.9174">E</text>
		<text transform="matrix(1 0 0 1 490.1143 276.2686)" fill="#FFFFFF" font-family="'Verdana'" font-size="19.9174">v</text>
		<text transform="matrix(1 0 0 1 501.7261 276.2686)" fill="#FFFFFF" font-family="'Verdana'" font-size="19.9174">e</text>
		<text transform="matrix(1 0 0 1 513.5913 276.2686)" fill="#FFFFFF" font-family="'Verdana'" font-size="19.9174">n</text>
		<text transform="matrix(1 0 0 1 749.5469 276.2676)" fill="#FFFFFF" font-family="'Verdana'" font-size="19.9174">Odd</text>
		<text transform="matrix(1 0 0 1 828.9316 276.2686)" fill="#FFFFFF" font-family="'Verdana'" font-size="19.9174">19-36</text>
		<text transform="matrix(1 0 0 1 573.2666 276.2676)" fill="#FFFFFF" font-family="'Verdana'" font-size="19.9174">R</text>
		<text transform="matrix(1 0 0 1 586.6294 276.2676)" fill="#FFFFFF" font-family="'Verdana'" font-size="19.9174">e</text>
		<text transform="matrix(1 0 0 1 598.4941 276.2676)" fill="#FFFFFF" font-family="'Verdana'" font-size="19.9174">d</text>
		<text transform="matrix(1 0 0 1 655.5225 276.2676)" fill="#FFFFFF" font-family="'Verdana'" font-size="19.9174">Black</text>
	</g>
</g>
</svg>
